<mxfile host="app.diagrams.net" modified="2023-11-01T17:14:47.864Z" agent="Mozilla/5.0 (Windows NT 10.0; Win64; x64; rv:109.0) Gecko/20100101 Firefox/119.0" etag="O0rAllx3ZzFP6lbFq1GP" version="22.0.8" type="device">
  <diagram name="Page-1" id="ViMweUnH5wubkpgJJ1Xe">
    <mxGraphModel dx="1194" dy="786" grid="1" gridSize="10" guides="1" tooltips="1" connect="1" arrows="1" fold="1" page="1" pageScale="1" pageWidth="827" pageHeight="1169" math="0" shadow="0">
      <root>
        <mxCell id="0" />
        <mxCell id="1" parent="0" />
        <mxCell id="XDQTA3Z9DYMTIlN9fxX2-1" value="Usuario no registrado" style="shape=umlActor;verticalLabelPosition=bottom;verticalAlign=top;html=1;outlineConnect=0;" vertex="1" parent="1">
          <mxGeometry x="90" y="160" width="130" height="230" as="geometry" />
        </mxCell>
        <mxCell id="XDQTA3Z9DYMTIlN9fxX2-2" value="Usuario no registrado" style="shape=umlActor;verticalLabelPosition=bottom;verticalAlign=top;html=1;outlineConnect=0;" vertex="1" parent="1">
          <mxGeometry x="90" y="460" width="130" height="230" as="geometry" />
        </mxCell>
        <mxCell id="XDQTA3Z9DYMTIlN9fxX2-4" value="" style="rounded=0;whiteSpace=wrap;html=1;" vertex="1" parent="1">
          <mxGeometry x="350" y="150" width="440" height="540" as="geometry" />
        </mxCell>
        <mxCell id="XDQTA3Z9DYMTIlN9fxX2-5" value="&lt;div&gt;Sistema&lt;/div&gt;" style="text;html=1;strokeColor=none;fillColor=none;align=center;verticalAlign=middle;whiteSpace=wrap;rounded=0;" vertex="1" parent="1">
          <mxGeometry x="540" y="170" width="60" height="30" as="geometry" />
        </mxCell>
        <mxCell id="XDQTA3Z9DYMTIlN9fxX2-6" value="&lt;div&gt;Jugar una partida&amp;nbsp;&lt;/div&gt;&lt;div&gt;uno contra uno local&lt;/div&gt;" style="ellipse;whiteSpace=wrap;html=1;aspect=fixed;" vertex="1" parent="1">
          <mxGeometry x="480" y="310" width="180" height="180" as="geometry" />
        </mxCell>
        <mxCell id="XDQTA3Z9DYMTIlN9fxX2-7" value="" style="endArrow=none;html=1;rounded=0;exitX=0.75;exitY=0.1;exitDx=0;exitDy=0;exitPerimeter=0;" edge="1" parent="1" source="XDQTA3Z9DYMTIlN9fxX2-1" target="XDQTA3Z9DYMTIlN9fxX2-6">
          <mxGeometry width="50" height="50" relative="1" as="geometry">
            <mxPoint x="390" y="430" as="sourcePoint" />
            <mxPoint x="440" y="380" as="targetPoint" />
          </mxGeometry>
        </mxCell>
        <mxCell id="XDQTA3Z9DYMTIlN9fxX2-9" value="" style="endArrow=none;html=1;rounded=0;entryX=0.039;entryY=0.678;entryDx=0;entryDy=0;entryPerimeter=0;exitX=0.75;exitY=0.1;exitDx=0;exitDy=0;exitPerimeter=0;" edge="1" parent="1" source="XDQTA3Z9DYMTIlN9fxX2-2" target="XDQTA3Z9DYMTIlN9fxX2-6">
          <mxGeometry width="50" height="50" relative="1" as="geometry">
            <mxPoint x="390" y="430" as="sourcePoint" />
            <mxPoint x="440" y="380" as="targetPoint" />
          </mxGeometry>
        </mxCell>
      </root>
    </mxGraphModel>
  </diagram>
</mxfile>
